<svg xmlns="http://www.w3.org/2000/svg" width="55" height="40" viewBox="0 0 55 40">
  <defs>
    <style>
      .cls-1 {
        fill: #ff3334;
        fill-rule: evenodd;
      }
    </style>
  </defs>
  <path id="Activity" class="cls-1" d="M319.792,2724.83l-6.471-14.4a2.433,2.433,0,0,0-4.584.44l-6.392,27.81-8.409-20.19a2.435,2.435,0,0,0-4.475-.03l-7.644,17.64-4.13-8.17a2.426,2.426,0,0,0-2.172-1.33,2.453,2.453,0,0,0-1.864.86l-8.088,9.6a2.4,2.4,0,0,0,1.864,3.94,2.454,2.454,0,0,0,1.864-.86l5.712-6.78,4.81,9.51a2.436,2.436,0,0,0,4.4-.13l7.43-17.14,9.124,21.91a2.434,2.434,0,0,0,4.611-.38l6.471-28.16,3.5,7.8a2.43,2.43,0,0,0,4.644-.97A2.31,2.31,0,0,0,319.792,2724.83Z" transform="translate(-265 -2709)"/>
</svg>
