<svg xmlns="http://www.w3.org/2000/svg" width="47" height="47" viewBox="0 0 47 47">
  <defs>
    <style>
      .cls-1 {
        fill: #ff3334;
        fill-rule: evenodd;
      }
    </style>
  </defs>
  <path id="CD" class="cls-1" d="M1338.5,2702a23.5,23.5,0,1,0,23.5,23.5A23.5,23.5,0,0,0,1338.5,2702Zm-10,7.27,5.05,10.83-0.45.45-10.83-5.05A19.12,19.12,0,0,1,1328.5,2709.27Zm10,19.17a2.94,2.94,0,1,1,2.94-2.94A2.945,2.945,0,0,1,1338.5,2728.44Zm0,16.15a19.066,19.066,0,0,1-18.11-25.1l10.86,5.06a7.145,7.145,0,0,0,7.25,8.29,7.63,7.63,0,0,0,.95-0.09l5.06,10.86A18.973,18.973,0,0,1,1338.5,2744.59Zm10-2.86-5.05-10.83,0.45-.45,10.83,5.05A19.12,19.12,0,0,1,1348.5,2741.73Zm-2.75-15.28a7.63,7.63,0,0,0,.09-0.95,7.332,7.332,0,0,0-7.34-7.34,7.453,7.453,0,0,0-.95.09l-5.06-10.86a19.066,19.066,0,0,1,24.12,24.12Z" transform="translate(-1315 -2702)"/>
</svg>
