<svg xmlns="http://www.w3.org/2000/svg" width="55" height="52" viewBox="0 0 55 52">
  <defs>
    <style>
      .cls-1 {
        fill: #ff3334;
        fill-rule: evenodd;
      }
    </style>
  </defs>
  <path id="Headphones" class="cls-1" d="M1364.64,2453.67a24.26,24.26,0,1,0-46.28,0,11.376,11.376,0,0,0,6.96,20.33h1.62a3.248,3.248,0,0,0,3.24-3.25V2454.5a3.241,3.241,0,0,0-3.24-3.25h-1.62a11.729,11.729,0,0,0-2.52.29,19.41,19.41,0,1,1,37.4,0,11.729,11.729,0,0,0-2.52-.29h-1.62a3.241,3.241,0,0,0-3.24,3.25v16.25a3.248,3.248,0,0,0,3.24,3.25h1.62A11.376,11.376,0,0,0,1364.64,2453.67Zm-39.32,15.45a6.5,6.5,0,0,1,0-13v13Zm32.36,0v-13A6.5,6.5,0,0,1,1357.68,2469.12Z" transform="translate(-1314 -2422)"/>
</svg>
