<?xml version="1.0" standalone="no"?>
<!DOCTYPE svg PUBLIC "-//W3C//DTD SVG 20010904//EN"
 "http://www.w3.org/TR/2001/REC-SVG-20010904/DTD/svg10.dtd">
<svg version="1.0" xmlns="http://www.w3.org/2000/svg"
 width="83.000000pt" height="67.000000pt" viewBox="0 0 83.000000 67.000000"
 preserveAspectRatio="xMidYMid meet">

<g transform="translate(0.000000,67.000000) scale(0.100000,-0.100000)"
fill="#ff3334" stroke="none">
<path d="M267 660 c-153 -39 -262 -173 -261 -325 0 -96 27 -160 99 -232 53
-53 71 -64 134 -83 57 -18 86 -21 129 -16 118 14 221 87 269 192 49 107 29
184 -47 184 -45 0 -65 -20 -85 -86 -52 -176 -289 -178 -336 -2 -23 86 22 171
107 204 40 15 53 16 98 5 105 -25 103 -25 130 2 29 30 34 71 11 104 -29 41
-171 72 -248 53z"/>
<path d="M644 631 c-30 -18 -46 -47 -58 -103 -9 -41 -53 -86 -96 -99 -33 -10
-47 -9 -83 5 -70 27 -113 22 -153 -18 -93 -93 11 -240 131 -187 43 19 75 66
75 111 0 13 17 39 39 61 45 45 82 50 161 22 42 -15 51 -15 86 -2 43 16 84 68
84 106 0 39 -30 93 -61 108 -38 20 -88 19 -125 -4z"/>
</g>
</svg>
