<svg xmlns="http://www.w3.org/2000/svg" width="50" height="51" viewBox="0 0 50 51">
  <defs>
    <style>
      .cls-1 {
        fill: #ff3334;
        fill-rule: evenodd;
      }
    </style>
  </defs>
  <path id="Icon" class="cls-1" d="M290,3434a24.627,24.627,0,0,1-14.2-45,2.445,2.445,0,0,1,3.366.61,2.367,2.367,0,0,1-.611,3.32,20.162,20.162,0,1,0,22.9,0,2.366,2.366,0,0,1-.611-3.32,2.417,2.417,0,0,1,2.019-1.03,2.39,2.39,0,0,1,1.347.42A24.627,24.627,0,0,1,290,3434Zm0-31.88a2.4,2.4,0,0,1-2.42-2.39v-14.34a2.42,2.42,0,0,1,4.839,0v14.34A2.4,2.4,0,0,1,290,3402.12Z" transform="translate(-265 -3383)"/>
</svg>
