<svg xmlns="http://www.w3.org/2000/svg" width="54" height="54" viewBox="0 0 54 54">
  <defs>
    <style>
      .cls-1 {
        fill: #ff3334;
        fill-rule: evenodd;
      }
    </style>
  </defs>
  <path id="Speaker" class="cls-1" d="M312.617,2463.45a2.532,2.532,0,0,1-3.592-3.57,16.822,16.822,0,0,0,0-23.76,2.532,2.532,0,1,1,3.592-3.57A21.89,21.89,0,0,1,312.617,2463.45Zm-7.979-6.39a2.563,2.563,0,0,1-1.625.59,2.533,2.533,0,0,1-1.628-4.47,6.741,6.741,0,0,0,0-10.36,2.533,2.533,0,0,1,1.628-4.47,2.563,2.563,0,0,1,1.625.59A11.805,11.805,0,0,1,304.638,2457.06ZM292,2475h-3.375l-11.813-11.81h-8.437a3.375,3.375,0,0,1-3.375-3.38v-23.62a3.375,3.375,0,0,1,3.375-3.38h8.437L288.625,2421H292a3.373,3.373,0,0,1,3.375,3.37v47.25A3.375,3.375,0,0,1,292,2475Zm-1.688-48.53-11.4,11.4h-8.847v20.25h8.847l11.4,11.41v-43.06Z" transform="translate(-265 -2421)"/>
</svg>
